<svg width="21" height="20" viewBox="0 0 21 20" fill="none" xmlns="http://www.w3.org/2000/svg">
<g clip-path="url(#clip0_33_1113)">
<path d="M4.73239 3.66317V14.1474C4.60501 14.0828 4.50147 13.9796 4.43662 13.8526L0.0422535 3.57896C-0.0137781 3.44495 -0.0140945 3.29426 0.041374 3.16002C0.0968425 3.02578 0.203552 2.919 0.338028 2.86317L6.92958 0.0421143H7.14084C7.25332 0.0482177 7.36247 0.0822272 7.4584 0.141053C7.55433 0.199879 7.63399 0.281656 7.69014 0.378956L7.94366 1.01054H7.39437C6.69176 1.02139 6.02099 1.30435 5.52412 1.79948C5.02724 2.29461 4.74329 2.96303 4.73239 3.66317Z" fill="white"/>
<path d="M10.6056 7.20005L6.84501 12.379V3.66321C6.83918 3.58786 6.84906 3.51213 6.87404 3.44079C6.89902 3.36944 6.93856 3.30402 6.99016 3.24864C7.04176 3.19327 7.10431 3.14914 7.17386 3.11904C7.24342 3.08893 7.31848 3.07351 7.39431 3.07373H14.5774C14.7109 3.08906 14.836 3.14626 14.9348 3.23708C15.0335 3.32789 15.1007 3.44763 15.1267 3.579H14.2394C13.5374 3.69857 12.9049 4.0737 12.4647 4.63163L12.0422 5.2211L11.3239 6.18952L10.6056 7.20005Z" fill="white"/>
<path d="M20.9155 10.7368L16.8169 16.3368L14.2817 19.7895C14.2471 19.8496 14.1981 19.9002 14.1392 19.9369C14.0802 19.9737 14.0131 19.9953 13.9437 20C13.8714 20.0177 13.796 20.0194 13.723 20.0048C13.65 19.9903 13.581 19.9599 13.5211 19.9158L10.1831 17.4737L8.74649 16.4631L7.7324 15.7053C7.60564 15.6631 7.56339 15.5789 7.52113 15.4526V15.3684C7.47888 15.3684 7.47888 15.3684 7.47888 15.3263C7.48085 15.1769 7.52476 15.0311 7.60564 14.9053L8.23945 14.021L9.4648 12.3368L11.5775 9.43157L12.2958 8.46315L13.0141 7.45262L14.1972 5.89473C14.2799 5.77669 14.3984 5.68815 14.5352 5.6421H14.6197C14.6817 5.63962 14.7435 5.64952 14.8016 5.67121C14.8596 5.69291 14.9127 5.72595 14.9578 5.76841L15.1268 5.85262L16.1831 6.61052L17.2394 7.41052L20.7887 9.93683C20.9084 10.0288 20.9883 10.1629 21.0118 10.3117C21.0354 10.4605 21.0009 10.6126 20.9155 10.7368Z" fill="white"/>
</g>
<defs>
<clipPath id="clip0_33_1113">
<rect width="21" height="20" fill="white"/>
</clipPath>
</defs>
</svg>
