<svg width="36" height="36" viewBox="0 0 36 36" fill="none" xmlns="http://www.w3.org/2000/svg">
<path d="M28.5 1.5H5.25C4.83579 1.5 4.5 1.83579 4.5 2.25V33.75C4.5 34.1642 4.83579 34.5 5.25 34.5H28.5C28.9142 34.5 29.25 34.1642 29.25 33.75V2.25C29.25 1.83579 28.9142 1.5 28.5 1.5Z" fill="#E9EBED"/>
<path d="M6.75 6H3C2.17157 6 1.5 6.67157 1.5 7.5V8.25C1.5 9.07843 2.17157 9.75 3 9.75H6.75C7.57843 9.75 8.25 9.07843 8.25 8.25V7.5C8.25 6.67157 7.57843 6 6.75 6Z" fill="#ABB4BA"/>
<path d="M6.75 12.75H3C2.17157 12.75 1.5 13.4216 1.5 14.25V15C1.5 15.8284 2.17157 16.5 3 16.5H6.75C7.57843 16.5 8.25 15.8284 8.25 15V14.25C8.25 13.4216 7.57843 12.75 6.75 12.75Z" fill="#ABB4BA"/>
<path d="M6.75 19.5H3C2.17157 19.5 1.5 20.1716 1.5 21V21.75C1.5 22.5784 2.17157 23.25 3 23.25H6.75C7.57843 23.25 8.25 22.5784 8.25 21.75V21C8.25 20.1716 7.57843 19.5 6.75 19.5Z" fill="#ABB4BA"/>
<path d="M6.75 26.25H3C2.17157 26.25 1.5 26.9216 1.5 27.75V28.5C1.5 29.3284 2.17157 30 3 30H6.75C7.57843 30 8.25 29.3284 8.25 28.5V27.75C8.25 26.9216 7.57843 26.25 6.75 26.25Z" fill="#ABB4BA"/>
<path d="M15 26.1375C14.8769 26.1369 14.7558 26.106 14.6475 26.0475C13.9163 25.6526 13.2509 25.1466 12.675 24.5475C12.6047 24.4778 12.5489 24.3948 12.5108 24.3034C12.4728 24.212 12.4532 24.114 12.4532 24.015C12.4532 23.916 12.4728 23.818 12.5108 23.7266C12.5489 23.6352 12.6047 23.5522 12.675 23.4825C12.8155 23.3428 13.0056 23.2644 13.2038 23.2644C13.4019 23.2644 13.592 23.3428 13.7325 23.4825C14.2028 23.9872 14.7494 24.415 15.3525 24.75C15.4886 24.8338 15.5943 24.9588 15.6543 25.1069C15.7143 25.255 15.7255 25.4184 15.6861 25.5733C15.6468 25.7281 15.559 25.8664 15.4356 25.9679C15.3122 26.0694 15.1596 26.1288 15 26.1375ZM11.9475 22.935C11.8015 22.9383 11.6578 22.8988 11.5339 22.8216C11.41 22.7443 11.3113 22.6325 11.25 22.5C10.8891 21.7504 10.6511 20.9476 10.545 20.1225C10.5192 19.9236 10.5734 19.7225 10.6957 19.5636C10.8181 19.4047 10.9986 19.3008 11.1975 19.275C11.3964 19.2491 11.5975 19.3033 11.7564 19.4257C11.9153 19.5481 12.0192 19.7286 12.045 19.9275C12.1315 20.5962 12.3239 21.2468 12.615 21.855C12.7 22.0341 12.7107 22.2396 12.6446 22.4265C12.5785 22.6134 12.4412 22.7666 12.2625 22.8525C12.1648 22.9027 12.0573 22.9309 11.9475 22.935ZM11.37 18.5475H11.235C11.1379 18.5295 11.0453 18.4925 10.9625 18.4385C10.8798 18.3846 10.8085 18.3149 10.7527 18.2334C10.697 18.1519 10.6579 18.0601 10.6377 17.9634C10.6175 17.8667 10.6166 17.767 10.635 17.67C10.788 16.8535 11.069 16.0663 11.4675 15.3375C11.5168 15.2513 11.5825 15.1757 11.661 15.1149C11.7394 15.0541 11.8291 15.0094 11.9249 14.9833C12.0206 14.9572 12.1206 14.9502 12.2191 14.9627C12.3175 14.9752 12.4126 15.007 12.4988 15.0562C12.5849 15.1055 12.6606 15.1712 12.7214 15.2497C12.7821 15.3282 12.8268 15.4179 12.853 15.5136C12.8791 15.6094 12.8861 15.7093 12.8736 15.8078C12.861 15.9063 12.8293 16.0013 12.78 16.0875C12.4581 16.6759 12.2303 17.3111 12.105 17.97C12.066 18.1352 11.972 18.2823 11.8385 18.3872C11.705 18.4922 11.5398 18.5486 11.37 18.5475ZM23.6025 15C23.4997 14.9997 23.398 14.9782 23.3038 14.9369C23.2096 14.8956 23.1249 14.8354 23.055 14.76C22.5979 14.2657 22.0665 13.8456 21.48 13.515C21.3943 13.4657 21.3192 13.4001 21.2589 13.3218C21.1985 13.2435 21.1542 13.1541 21.1285 13.0587C21.1027 12.9633 21.096 12.8637 21.1087 12.7657C21.1214 12.6677 21.1533 12.5732 21.2025 12.4875C21.2518 12.4018 21.3174 12.3267 21.3957 12.2663C21.474 12.206 21.5634 12.1617 21.6588 12.1359C21.7542 12.1102 21.8538 12.1034 21.9518 12.1162C22.0498 12.1289 22.1443 12.1607 22.23 12.21C22.9509 12.607 23.6061 13.113 24.1725 13.71C24.3064 13.8564 24.3768 14.0498 24.3684 14.248C24.36 14.4462 24.2733 14.633 24.1275 14.7675C24.0596 14.8388 23.9782 14.8961 23.8881 14.936C23.7981 14.9759 23.701 14.9976 23.6025 15ZM13.5 14.6625C13.3977 14.6631 13.2964 14.6428 13.2022 14.6028C13.1081 14.5629 13.0231 14.504 12.9525 14.43C12.8128 14.2895 12.7344 14.0994 12.7344 13.9012C12.7344 13.7031 12.8128 13.513 12.9525 13.3725C13.5592 12.8109 14.2501 12.3478 15 12C15.0894 11.9559 15.1867 11.9302 15.2862 11.9241C15.3857 11.9181 15.4854 11.932 15.5795 11.965C15.6735 11.9979 15.7601 12.0493 15.8341 12.1161C15.908 12.1829 15.968 12.2637 16.0103 12.354C16.0527 12.4442 16.0767 12.5419 16.0808 12.6415C16.085 12.7411 16.0692 12.8405 16.0345 12.934C15.9998 13.0274 15.9468 13.113 15.8786 13.1857C15.8105 13.2584 15.7285 13.3168 15.6375 13.3575C15.0305 13.645 14.4714 14.0245 13.98 14.4825C13.8461 14.597 13.6762 14.6607 13.5 14.6625ZM19.74 12.8625H19.5975C18.9376 12.7364 18.2625 12.7111 17.595 12.7875C17.4965 12.7993 17.3967 12.7916 17.3011 12.7648C17.2056 12.7381 17.1163 12.6927 17.0383 12.6315C16.9603 12.5702 16.8952 12.4941 16.8465 12.4076C16.7979 12.3212 16.7668 12.226 16.755 12.1275C16.7432 12.029 16.7509 11.9291 16.7777 11.8336C16.8044 11.7381 16.8498 11.6488 16.911 11.5708C16.9723 11.4928 17.0484 11.4276 17.1348 11.379C17.2213 11.3304 17.3165 11.2993 17.415 11.2875C18.2367 11.1836 19.0696 11.2114 19.8825 11.37C20.0814 11.3889 20.2647 11.486 20.392 11.64C20.5193 11.7941 20.5802 11.9923 20.5613 12.1912C20.5424 12.3902 20.4452 12.5734 20.2912 12.7007C20.1372 12.828 19.9389 12.8889 19.74 12.87V12.8625Z" fill="#72767B"/>
<g clip-path="url(#clip0_37_1293)">
<path d="M29.6678 6.46312L17.7403 22.0965L16.6899 22.2325L16.5769 21.2089L15.5945 21.3247L27.9393 5.14441L29.6678 6.46312Z" fill="#4A9ADB"/>
<path d="M31.4295 7.80708L19.0847 23.9874L18.9369 23.0093L17.8866 23.1453L17.7403 22.0963L29.6678 6.46301L31.4295 7.80708Z" fill="#3587CB"/>
<path d="M15.5148 25.0134L14.8193 25.9249C14.7642 25.8892 14.7235 25.8349 14.7012 25.7673C14.679 25.6998 14.676 25.6213 14.6925 25.5397L14.9165 24.5569L15.5148 25.0134Z" fill="#356287"/>
<path d="M16.1463 25.4953L15.2243 25.9456C15.0867 26.0569 14.919 26.0011 14.8193 25.925L15.5148 25.0134L16.1463 25.4953Z" fill="#2C5170"/>
<path d="M17.7403 22.0964L15.5147 25.0134L14.9164 24.557L15.5598 21.3702L15.5946 21.3246L16.5769 21.2088L16.6899 22.2325L17.7403 22.0964Z" fill="#FFCCAA"/>
<path d="M19.0847 23.9874L19.05 24.033L16.1464 25.4953L15.5148 25.0134L17.7404 22.0964L17.8866 23.1454L18.937 23.0094L19.0847 23.9874Z" fill="#FFB380"/>
<path d="M31.9281 3.50047L29.6678 6.46306L27.9394 5.14435L29.4347 3.18448C29.6376 2.91855 29.9092 2.72228 30.1898 2.63886C30.4704 2.55545 30.737 2.59171 30.931 2.73968L31.9281 3.50047Z" fill="#F2F2F2"/>
<path d="M32.9247 5.84728L31.4295 7.80715L29.6678 6.46307L31.9281 3.50049L32.9585 4.28664C33.1525 4.43461 33.2579 4.68216 33.2515 4.97484C33.2452 5.26752 33.1276 5.58134 32.9247 5.84728Z" fill="#E6E6E6"/>
</g>
<defs>
<clipPath id="clip0_37_1293">
<rect width="4.3899" height="28.2059" fill="white" transform="translate(30.1997 2.18176) rotate(37.342)"/>
</clipPath>
</defs>
</svg>
