<svg width="299" height="197" viewBox="0 0 299 197" fill="none" xmlns="http://www.w3.org/2000/svg">
<g clip-path="url(#clip0_39_18)">
<path d="M281.293 72.7791V73.6542C281.293 74.9668 281.073 76.0606 281.073 77.3732C280.977 78.8475 280.755 80.3111 280.411 81.7485C280.298 83.0046 280.076 84.2488 279.749 85.4675C278.039 92.4399 275.048 99.0401 270.925 104.938L269.602 106.688L265.19 111.5C261.4 115.439 257.008 118.761 252.175 121.345L248.425 123.095C241.176 126.452 233.265 128.17 225.264 128.127C216.2 128.106 207.274 125.93 199.234 121.782L195.484 119.595C193.483 118.334 191.568 116.946 189.749 115.438L186.44 112.594L182.469 108.219L178.94 103.625C177.855 102.1 176.896 100.49 176.072 98.8121C174.078 95.2927 172.523 91.5463 171.44 87.6551C170.44 83.8548 169.775 79.9753 169.454 76.0606V76.0606V72.7791C169.41 69.3315 169.706 65.8878 170.337 62.4972C171.164 58.1032 172.574 53.8368 174.528 49.8088C175.692 46.9571 177.172 44.2424 178.94 41.7145L180.925 38.8706C184.209 34.9208 187.906 31.3276 191.955 28.1511C195.567 25.4991 199.494 23.2951 203.646 21.5882V21.5882C206.507 20.4116 209.457 19.4607 212.469 18.7442C216.666 17.7781 220.956 17.2646 225.264 17.2129C231.187 17.2486 237.068 18.2083 242.69 20.0568C253.364 23.5013 262.743 30.058 269.602 38.8706C271.2 40.8475 272.604 42.9719 273.793 45.2148C277.509 51.4536 279.91 58.3747 280.852 65.5599C280.852 66.6537 281.073 67.9663 281.073 69.0601C281.256 70.291 281.33 71.5354 281.293 72.7791V72.7791Z" fill="#356287"/>
<path d="M212.028 72.3416C213.513 73.9112 215.307 75.1621 217.299 76.0173C219.291 76.8724 221.439 77.3136 223.609 77.3136C225.78 77.3136 227.927 76.8724 229.919 76.0173C231.911 75.1621 233.705 73.9112 235.19 72.3416L237.616 69.7164L234.087 68.4038C233.714 68.2165 233.396 67.9368 233.164 67.5919C232.933 67.2469 232.794 66.8484 232.764 66.435V58.7782C230.241 60.519 227.234 61.4367 224.161 61.4034C220.869 61.5308 217.623 60.6109 214.896 58.7782V66.2162C214.885 66.6913 214.733 67.1526 214.458 67.5419C214.183 67.9312 213.798 68.2312 213.352 68.4038L209.822 69.7164L212.028 72.3416Z" fill="#FFBEAB"/>
<path d="M222.175 61.4034C219.57 61.1287 217.071 60.2276 214.896 58.7782V66.2162C214.885 66.6913 214.733 67.1526 214.458 67.5419C214.183 67.9312 213.798 68.2312 213.352 68.4038L209.822 69.7164L212.028 72.3416C214.729 75.0874 218.325 76.793 222.175 77.1544V61.4034Z" fill="#F7AF9F"/>
<path d="M265.19 104.938V111.719C261.4 115.658 257.008 118.98 252.175 121.564L248.425 123.314C241.175 126.671 233.264 128.389 225.263 128.345C216.187 128.432 207.236 126.25 199.234 122.001L195.484 119.814C193.483 118.553 191.568 117.164 189.749 115.657L186.44 112.813L182.469 108.438V90.4991C182.468 87.6359 183.3 84.8332 184.865 82.4274C186.43 80.0215 188.662 78.1146 191.293 76.9357L194.602 75.6231L209.822 69.7164H210.263L212.469 72.1229C214.999 74.8553 218.454 76.5685 222.175 76.9357C224.507 77.1978 226.868 76.8971 229.057 76.0591C231.247 75.2211 233.199 73.8707 234.749 72.1229L237.175 69.4977H238.278C237.411 74.2356 237.7 79.1105 239.12 83.7153C240.54 88.3201 243.05 92.5213 246.44 95.9682C247.484 97.0219 248.14 98.3943 248.3 99.8633C248.46 101.332 248.116 102.812 247.322 104.062L245.778 106.25C245.694 106.392 245.651 106.555 245.655 106.719C245.66 106.884 245.711 107.044 245.803 107.182C245.895 107.319 246.025 107.427 246.177 107.495C246.328 107.562 246.496 107.586 246.661 107.563L248.425 107.125L252.175 106.031H253.058L258.793 104.719C259.72 104.431 260.7 104.356 261.661 104.5C262.822 104.75 264.003 104.897 265.19 104.938V104.938Z" fill="#54A0FF"/>
<path d="M194.602 75.623C193.063 77.0059 191.836 78.6947 191 80.5794C190.164 82.4641 189.737 84.5023 189.749 86.5613V115.657L186.44 112.813L182.469 108.438V90.499C182.468 87.6359 183.3 84.8332 184.865 82.4273C186.43 80.0214 188.662 78.1146 191.293 76.9356L194.602 75.623Z" fill="#338DEF"/>
<path d="M199.234 93.7806V122.001L195.484 119.814V93.7806C195.532 93.3327 195.733 92.9146 196.054 92.5961C196.376 92.2776 196.797 92.078 197.249 92.0304C197.739 92.0274 198.213 92.2046 198.58 92.5277C198.947 92.8509 199.18 93.2972 199.234 93.7806V93.7806Z" fill="#338DEF"/>
<path d="M252.175 106.031V121.564L248.425 123.314V106.906L252.175 106.031Z" fill="#338DEF"/>
<path d="M285.264 49.8088C278.974 45.7127 271.385 44.0533 263.941 45.1467C256.498 46.2401 249.719 50.0098 244.897 55.7383C240.074 61.4667 237.544 68.7539 237.788 76.2125C238.032 83.6711 241.033 90.7804 246.219 96.1869C247.266 97.147 247.931 98.4479 248.093 99.8529C248.255 101.258 247.903 102.674 247.102 103.844L245.558 106.25C245.48 106.424 245.45 106.614 245.47 106.803C245.489 106.992 245.558 107.173 245.669 107.327C245.781 107.482 245.931 107.605 246.104 107.685C246.278 107.764 246.47 107.798 246.661 107.781L258.793 104.719H261.661C268.639 106.358 275.976 105.501 282.379 102.3C288.783 99.0992 293.841 93.7589 296.663 87.2209C299.485 80.6829 299.888 73.3669 297.803 66.5626C295.717 59.7583 291.277 53.9025 285.264 50.0276V49.8088Z" fill="#E9EBED"/>
<path d="M254.381 103.844C255.131 102.671 255.472 101.288 255.352 99.9046C255.233 98.5216 254.659 97.2156 253.719 96.1869C249.71 92.1504 246.926 87.0763 245.687 81.5447C244.448 76.0131 244.804 70.2474 246.714 64.907C248.625 59.5667 252.011 54.8672 256.488 51.3461C260.965 47.825 266.35 45.6244 272.028 44.996C265.759 44.2547 259.412 45.4509 253.854 48.4212C248.295 51.3915 243.797 55.9909 240.974 61.5914C238.15 67.1919 237.139 73.5203 238.078 79.7122C239.017 85.9041 241.86 91.6576 246.219 96.1869C247.266 97.147 247.931 98.4478 248.093 99.8529C248.255 101.258 247.903 102.674 247.102 103.844L245.558 106.25C245.48 106.424 245.45 106.614 245.47 106.803C245.489 106.992 245.558 107.173 245.669 107.327C245.781 107.482 245.931 107.605 246.104 107.685C246.278 107.764 246.47 107.798 246.661 107.781L252.837 106.25L254.381 103.844Z" fill="#ABB4BA"/>
<path d="M281.514 65.7786H254.822C254.354 65.7786 253.906 65.963 253.575 66.2912C253.244 66.6194 253.058 67.0645 253.058 67.5287C253.058 67.9928 253.244 68.438 253.575 68.7662C253.906 69.0944 254.354 69.2788 254.822 69.2788H281.514C281.982 69.2788 282.431 69.0944 282.762 68.7662C283.092 68.438 283.278 67.9928 283.278 67.5287C283.278 67.0645 283.092 66.6194 282.762 66.2912C282.431 65.963 281.982 65.7786 281.514 65.7786Z" fill="#ABB4BA"/>
<path d="M281.514 73.8729H254.822C254.354 73.8729 253.906 74.0573 253.575 74.3855C253.244 74.7137 253.058 75.1589 253.058 75.623C253.026 75.8705 253.049 76.1219 253.123 76.3601C253.197 76.5984 253.322 76.8181 253.49 77.0046C253.657 77.191 253.862 77.3399 254.092 77.4412C254.322 77.5425 254.571 77.5939 254.822 77.5919H281.514C281.765 77.5939 282.014 77.5425 282.244 77.4412C282.474 77.3399 282.679 77.191 282.847 77.0046C283.014 76.8181 283.139 76.5984 283.213 76.3601C283.288 76.1219 283.31 75.8705 283.278 75.623C283.278 75.1589 283.092 74.7137 282.762 74.3855C282.431 74.0573 281.982 73.8729 281.514 73.8729V73.8729Z" fill="#ABB4BA"/>
<path d="M281.514 81.9672H254.822C254.571 81.9653 254.322 82.0167 254.092 82.118C253.862 82.2193 253.657 82.3681 253.49 82.5546C253.322 82.741 253.197 82.9608 253.123 83.199C253.049 83.4373 253.026 83.6886 253.058 83.9361C253.058 84.4003 253.244 84.8454 253.575 85.1736C253.906 85.5018 254.354 85.6862 254.822 85.6862H281.514C281.982 85.6862 282.431 85.5018 282.762 85.1736C283.092 84.8454 283.278 84.4003 283.278 83.9361C283.31 83.6886 283.288 83.4373 283.213 83.199C283.139 82.9608 283.014 82.741 282.847 82.5546C282.679 82.3681 282.474 82.2193 282.244 82.118C282.014 82.0167 281.765 81.9653 281.514 81.9672V81.9672Z" fill="#ABB4BA"/>
<path d="M223.499 8.46228C217.842 8.51924 212.433 10.7732 208.432 14.7405C204.432 18.7078 202.159 24.0722 202.102 29.6825V37.558C202.879 36.9729 203.771 36.5542 204.72 36.3283C205.669 36.1024 206.656 36.0741 207.616 36.2454V35.1516C207.614 34.9591 207.654 34.7685 207.733 34.5931C207.813 34.4177 207.931 34.2618 208.078 34.1366C208.226 34.0114 208.399 33.9198 208.586 33.8683C208.773 33.8169 208.969 33.8069 209.161 33.839C217.321 34.1029 225.378 31.972 232.322 27.7136C232.441 27.5888 232.588 27.4935 232.751 27.4355C232.914 27.3775 233.089 27.3584 233.261 27.3797C233.432 27.401 233.597 27.4621 233.74 27.5581C233.884 27.6541 234.003 27.7823 234.087 27.9323C239.602 33.6202 239.602 33.4015 239.602 34.2765V36.2454C240.513 36.0612 241.452 36.0632 242.363 36.2513C243.273 36.4393 244.135 36.8095 244.896 37.3392V29.6825C244.896 26.8958 244.342 24.1364 243.267 21.5618C242.192 18.9873 240.616 16.648 238.629 14.6775C236.642 12.7071 234.283 11.144 231.687 10.0776C229.091 9.01116 226.309 8.46228 223.499 8.46228V8.46228Z" fill="#576574"/>
<path d="M209.381 29.6824C209.408 24.6608 211.211 19.8077 214.476 15.9696C217.742 12.1316 222.262 9.55208 227.249 8.68103H223.499C217.842 8.73799 212.433 10.992 208.432 14.9592C204.432 18.9265 202.159 24.2909 202.102 29.9012V37.7767C202.879 37.1917 203.771 36.773 204.72 36.547C205.669 36.3211 206.656 36.2929 207.616 36.4641V35.3703C207.614 35.1779 207.654 34.9872 207.733 34.8118C207.813 34.6364 207.931 34.4806 208.078 34.3553C208.226 34.2301 208.399 34.1385 208.586 34.0871C208.773 34.0357 208.969 34.0256 209.161 34.0577H209.381V29.6824Z" fill="#3E4B5A"/>
<path d="M239.381 35.5891V48.0587C240.305 48.2311 241.256 48.1994 242.167 47.9658C243.077 47.7321 243.924 47.3024 244.648 46.7071C245.372 46.1117 245.954 45.3655 246.354 44.5215C246.754 43.6775 246.961 42.7564 246.961 41.8239C246.961 40.8914 246.754 39.9703 246.354 39.1263C245.954 38.2823 245.372 37.5361 244.648 36.9408C243.924 36.3454 243.077 35.9157 242.167 35.6821C241.256 35.4484 240.305 35.4167 239.381 35.5891V35.5891Z" fill="#FFBEAB"/>
<path d="M207.837 47.6211V35.5891C206.904 35.4672 205.955 35.5376 205.051 35.796C204.147 36.0544 203.306 36.4951 202.581 37.0907C201.856 37.6862 201.263 38.4237 200.839 39.2569C200.415 40.0902 200.169 41.0013 200.116 41.9333C200.128 42.8709 200.35 43.7942 200.765 44.6367C201.18 45.4793 201.778 46.2201 202.517 46.8058C203.255 47.3916 204.115 47.8078 205.035 48.0244C205.955 48.2411 206.912 48.2528 207.837 48.0587V47.6211Z" fill="#FFBEAB"/>
<path d="M244.896 37.3392C244.162 36.6652 243.287 36.1591 242.335 35.8567C241.382 35.5543 240.374 35.463 239.381 35.5891V48.0587C240.374 48.1848 241.382 48.0934 242.335 47.791C243.287 47.4886 244.162 46.9826 244.896 46.3085V37.3392Z" fill="#F7AF9F"/>
<path d="M207.837 46.3086C207.221 45.7549 206.729 45.0796 206.393 44.326C206.056 43.5725 205.882 42.7574 205.882 41.9333C205.882 41.1091 206.056 40.294 206.393 39.5405C206.729 38.787 207.221 38.1117 207.837 37.558V35.5891C206.904 35.4672 205.955 35.5376 205.051 35.796C204.147 36.0544 203.306 36.4951 202.581 37.0907C201.856 37.6862 201.263 38.4237 200.839 39.2569C200.415 40.0902 200.169 41.0013 200.116 41.9333C200.128 42.8709 200.35 43.7942 200.765 44.6367C201.18 45.4793 201.778 46.2201 202.517 46.8058C203.255 47.3916 204.115 47.8078 205.035 48.0244C205.955 48.2411 206.912 48.2528 207.837 48.0587V46.3086Z" fill="#F7AF9F"/>
<path d="M234.087 27.276C233.839 27.0878 233.545 26.9685 233.235 26.93C232.924 26.8916 232.61 26.9355 232.322 27.0572C225.442 31.4805 217.355 33.6955 209.16 33.4014C208.969 33.3693 208.773 33.3793 208.586 33.4308C208.399 33.4822 208.226 33.5738 208.078 33.699C207.931 33.8243 207.813 33.9801 207.733 34.1555C207.654 34.3309 207.614 34.5216 207.616 34.714V47.4023C208.077 51.2879 209.96 54.8705 212.908 57.4703C215.856 60.0701 219.664 61.5062 223.609 61.5062C227.554 61.5062 231.362 60.0701 234.31 57.4703C237.258 54.8705 239.141 51.2879 239.602 47.4023V33.8389C239.602 32.9639 239.602 33.1826 234.087 27.276Z" fill="#FFCDBF"/>
<path d="M214.896 47.4024V33.1827H209.161C208.969 33.1506 208.773 33.1606 208.586 33.212C208.399 33.2635 208.226 33.3551 208.078 33.4803C207.931 33.6055 207.813 33.7614 207.733 33.9368C207.654 34.1122 207.614 34.3028 207.616 34.4953V47.1836C207.555 49.2972 207.93 51.4009 208.718 53.3658C209.506 55.3307 210.69 57.1153 212.197 58.6105C213.705 60.1056 215.504 61.2798 217.486 62.0609C219.467 62.8421 221.588 63.2139 223.719 63.1534L227.249 62.7159C223.728 61.9614 220.577 60.0264 218.327 57.237C216.077 54.4477 214.865 50.9744 214.896 47.4024V47.4024Z" fill="#FFBEAB"/>
</g>
<g clip-path="url(#clip1_39_18)">
<path d="M114.879 70.477V71.3864C114.879 72.7505 114.652 73.8872 114.652 75.2513C114.554 76.7834 114.327 78.3044 113.974 79.7982C113.858 81.1036 113.631 82.3966 113.295 83.663C111.562 90.9565 108.411 97.8331 104.022 103.897C103.729 104.552 103.348 105.163 102.891 105.716L98.3678 110.717L97.4631 111.626C93.77 115.302 89.5827 118.44 85.0234 120.948L81.1785 122.766C79.0945 123.907 76.8958 124.821 74.6194 125.495C71.1512 126.525 67.5907 127.21 63.9891 127.541H57.4301C48.1242 127.631 38.9457 125.363 30.7414 120.948L26.8964 118.674C24.8452 117.364 22.8809 115.921 21.0159 114.355L17.6233 111.854L13.5521 107.307L9.93332 102.533C8.82131 100.947 7.83805 99.2749 6.99304 97.5311C4.94888 93.8737 3.35399 89.9803 2.24337 85.9365C1.79102 83.663 1.11249 81.3896 0.886316 79.1161L0.207791 73.8872V70.477C0.162479 66.8942 0.465485 63.3154 1.11249 59.7918C1.50624 57.7131 2.03512 55.6626 2.69572 53.6535C3.36354 51.2189 4.2728 48.8578 5.40982 46.6058C6.6033 43.6422 8.12043 40.821 9.93332 38.194L11.9689 35.2385C15.3361 31.1338 19.1269 27.3996 23.2776 24.0986C26.982 21.3426 31.0076 19.0521 35.2649 17.2782V17.2782L41.3716 15.2321L44.0857 14.3227C47.7251 13.4597 51.4342 12.9271 55.1683 12.7313H57.4301L63.0844 13.186C65.3704 13.2645 67.6431 13.5691 69.8697 14.0954L75.2979 15.6868L77.5597 16.3688C80.0739 17.2734 82.4972 18.4152 84.7973 19.779L92.0349 24.3259C96.0912 27.4953 99.7382 31.1611 102.891 35.2385C104.53 37.2929 105.969 39.5007 107.189 41.8315C110.902 48.359 113.358 55.5322 114.426 62.9746C114.426 64.1113 114.652 65.4754 114.652 66.6121C114.84 67.8913 114.916 69.1845 114.879 70.477V70.477Z" fill="#356287"/>
<path d="M102.665 37.512C102.251 37.1209 101.763 36.8164 101.231 36.616C100.699 36.4155 100.132 36.3232 99.5645 36.3444C98.9966 36.3655 98.4385 36.4997 97.9225 36.7391C97.4064 36.9786 96.9428 37.3185 96.5584 37.7393L89.9993 44.3323C89.8494 44.6037 89.5983 44.804 89.3014 44.8893C89.0045 44.9745 88.686 44.9378 88.4161 44.787C88.1462 44.6363 87.9469 44.3839 87.862 44.0855C87.7772 43.787 87.8138 43.4669 87.9637 43.1956L93.3919 18.6423C93.5925 17.5881 93.3729 16.4969 92.7806 15.6039C92.1883 14.7109 91.2707 14.0875 90.2255 13.8681C89.2133 13.7109 88.1786 13.9224 87.3077 14.4642C86.4369 15.0061 85.7873 15.8428 85.4758 16.8235L80.9523 33.8744C80.8147 34.3166 80.5461 34.7059 80.1823 34.9903C79.8185 35.2747 79.3769 35.4407 78.9167 35.4659C78.611 35.5024 78.3009 35.4688 78.01 35.3674C77.719 35.2661 77.4547 35.0998 77.237 34.8809C77.0192 34.662 76.8537 34.3964 76.7529 34.1039C76.6521 33.8114 76.6186 33.4998 76.655 33.1924L78.2382 7.0477C78.2391 6.52045 78.1327 5.99859 77.9255 5.51422C77.7183 5.02985 77.4146 4.59322 77.0333 4.2312C76.652 3.86917 76.2009 3.58941 75.708 3.40912C75.2151 3.22883 74.6907 3.15182 74.1671 3.18283C73.0873 3.18283 72.0518 3.61398 71.2883 4.38142C70.5248 5.14885 70.0959 6.18973 70.0959 7.27505L68.5127 33.4198C68.5127 33.9624 68.2982 34.4828 67.9165 34.8666C67.5347 35.2503 67.017 35.4659 66.4771 35.4659C65.9145 35.4687 65.371 35.2606 64.9528 34.8823C64.5345 34.5039 64.2716 33.9825 64.2154 33.4198L62.6321 4.09221C62.6321 3.00689 62.2032 1.96602 61.4397 1.19858C60.6762 0.431143 59.6407 0 58.561 0C57.5209 0.0581687 56.5426 0.514858 55.8274 1.27608C55.1121 2.03731 54.7144 3.04516 54.716 4.09221L56.2992 32.283C56.2992 33.1272 55.9656 33.9367 55.3718 34.5336C54.778 35.1305 53.9726 35.4659 53.1328 35.4659C52.4574 35.4841 51.7964 35.2681 51.261 34.854C50.7255 34.44 50.3482 33.8532 50.1925 33.1924L46.3475 19.097C46.0802 18.0884 45.4395 17.2207 44.5565 16.6713C43.6736 16.1219 42.6152 15.9324 41.5979 16.1415C41.0603 16.2435 40.5506 16.4597 40.1028 16.7756C39.655 17.0914 39.2794 17.4997 39.001 17.9731C38.7227 18.4465 38.5481 18.9742 38.4889 19.5208C38.4297 20.0675 38.4872 20.6206 38.6576 21.1431L43.8596 44.3323L55.8469 63.202C55.9407 63.4203 56.1003 63.6035 56.3032 63.7259C56.506 63.8482 56.742 63.9035 56.9778 63.884C57.156 63.884 57.3324 63.8487 57.4971 63.7802C57.6617 63.7116 57.8113 63.6112 57.9373 63.4845C58.0634 63.3578 58.1633 63.2074 58.2315 63.042C58.2997 62.8765 58.3348 62.6991 58.3348 62.5199V52.5168C58.3289 51.4457 58.719 50.4107 59.4295 49.6125C60.14 48.8143 61.1202 48.3099 62.1798 48.1972H62.406C63.4857 48.1972 64.5212 48.6283 65.2847 49.3958C66.0482 50.1632 66.4771 51.2041 66.4771 52.2894L66.0248 67.2942C65.8695 72.3178 66.6362 77.3272 68.2865 82.0716H79.5953C79.6852 76.7748 80.8326 71.5501 82.9695 66.7075C85.1064 61.8649 88.1891 57.5031 92.0349 53.8808L102.891 43.6503C103.28 43.2338 103.583 42.7439 103.783 42.2089C103.982 41.674 104.074 41.1046 104.053 40.5337C104.032 39.9628 103.898 39.4018 103.66 38.8831C103.422 38.3644 103.084 37.8984 102.665 37.512V37.512Z" fill="#EAAC9D"/>
<path d="M73.0362 91.3927H73.2623L74.3932 90.256H75.7503L82.9879 97.3037V83.2083C82.9879 83.0292 82.9528 82.8518 82.8846 82.6863C82.8164 82.5208 82.7164 82.3704 82.5904 82.2438C82.4644 82.1171 82.3148 82.0166 82.1501 81.9481C81.9855 81.8795 81.809 81.8442 81.6308 81.8442H68.2865C69.4088 85.2384 71.0082 88.4538 73.0362 91.3927V91.3927Z" fill="#3587CB"/>
<path d="M51.3234 115.037C51.2416 114.944 51.1793 114.836 51.1404 114.719C51.1015 114.602 51.0868 114.478 51.0972 114.355C51.0972 114.127 51.0972 113.9 51.3234 113.9L52.6804 112.309L47.7046 108.671V127.313C50.9826 127.954 54.317 128.259 57.6563 128.223L63.9892 127.768L51.3234 115.037Z" fill="#3587CB"/>
<path d="M81.4047 42.5135C78.2716 42.5175 75.2043 43.4174 72.561 45.1082C69.9177 46.7989 67.8076 49.2108 66.4771 52.0621V52.0621L66.0248 62.2926L68.0604 62.7473C68.9601 62.7473 69.8231 62.388 70.4593 61.7485C71.0955 61.1089 71.453 60.2415 71.453 59.3371C71.453 56.6841 72.5015 54.1397 74.3678 52.2638C76.2341 50.3878 78.7653 49.3339 81.4047 49.3339C82.3045 49.3339 83.1674 48.9746 83.8036 48.3351C84.4399 47.6956 84.7973 46.8282 84.7973 45.9237C84.7973 45.0193 84.4399 44.1519 83.8036 43.5124C83.1674 42.8728 82.3045 42.5135 81.4047 42.5135V42.5135Z" fill="#EAAC9D"/>
<path d="M73.4886 91.3928C68.4033 84.4293 65.8486 75.923 66.251 67.2943L66.7033 52.2895C66.6452 51.1234 66.1431 50.0244 65.301 49.2203C64.4589 48.4162 63.3413 47.9684 62.1798 47.9699C61.0381 48.0786 59.9741 48.5989 59.1842 49.4346C58.3944 50.2704 57.932 51.3651 57.8825 52.5168V62.52C57.9425 62.7612 57.9047 63.0164 57.7774 63.2296C57.6502 63.4428 57.4439 63.5964 57.204 63.6567C56.964 63.717 56.7101 63.679 56.498 63.5511C56.2859 63.4232 56.1331 63.2159 56.0731 62.9747L42.2764 41.3769C41.6754 40.4787 40.7607 39.8402 39.7136 39.5875C38.6665 39.3349 37.5631 39.4867 36.622 40.0128C35.7826 40.6105 35.1994 41.5053 34.9897 42.5175C34.7799 43.5297 34.959 44.5843 35.4911 45.4691L44.312 60.9286C44.5742 61.3463 44.694 61.8385 44.6532 62.3307C44.6124 62.8229 44.4132 63.2884 44.0858 63.6567H43.8596C43.4368 64.0733 42.8684 64.3066 42.2764 64.3066C41.6844 64.3066 41.116 64.0733 40.6932 63.6567L23.5039 44.105C22.7073 43.3538 21.6559 42.9357 20.5636 42.9357C19.4713 42.9357 18.4199 43.3538 17.6233 44.105C17.0124 44.9371 16.7019 45.9535 16.743 46.9868C16.7842 48.02 17.1744 49.0083 17.8495 49.7887L35.265 69.3404C35.602 69.8143 35.7638 70.3917 35.7225 70.9727C35.6812 71.5538 35.4394 72.1022 35.0388 72.5232C34.6291 72.8754 34.1078 73.069 33.5687 73.069C33.0296 73.069 32.5082 72.8754 32.0985 72.5232L10.3857 52.7442C10.0102 52.3655 9.56072 52.0693 9.06554 51.8743C8.57037 51.6792 8.04032 51.5895 7.50891 51.6109C6.97749 51.6323 6.45626 51.7642 5.97817 51.9984C5.50008 52.2326 5.07552 52.5639 4.73134 52.9715C3.9989 53.7343 3.58957 54.7531 3.58957 55.8133C3.58957 56.8735 3.9989 57.8923 4.73134 58.6551L25.5394 77.2974C25.8556 77.5784 26.1126 77.92 26.2956 78.3022C26.4785 78.6844 26.5836 79.0994 26.6046 79.523C26.6257 79.9466 26.5623 80.3702 26.4183 80.7688C26.2742 81.1675 26.0523 81.5331 25.7656 81.8443C25.5448 82.1306 25.2694 82.3698 24.9556 82.5479C24.6418 82.7261 24.2959 82.8397 23.938 82.882C23.5801 82.9243 23.2173 82.8945 22.871 82.7945C22.5246 82.6944 22.2016 82.526 21.9206 82.299L9.48102 75.024C8.5399 74.4979 7.43658 74.3461 6.38944 74.5987C5.3423 74.8513 4.42769 75.4899 3.82664 76.3881C3.55244 76.8455 3.37552 77.355 3.30704 77.8846C3.23856 78.4142 3.28 78.9523 3.42876 79.4649C3.57752 79.9776 3.83036 80.4537 4.17134 80.8632C4.51231 81.2728 4.93402 81.6068 5.40986 81.8443L45.4429 107.534L52.6805 112.536L73.4886 91.3928Z" fill="#FFCBBE"/>
<path d="M50.1925 104.124L9.93337 78.4341C9.26484 78.064 8.72984 77.4909 8.40487 76.7967C8.07989 76.1026 7.98157 75.3229 8.12396 74.5692C7.30858 74.3935 6.45918 74.4737 5.69061 74.799C4.92204 75.1242 4.27139 75.6789 3.82664 76.388C3.55244 76.8454 3.37552 77.3549 3.30704 77.8845C3.23856 78.4141 3.28 78.9522 3.42876 79.4649C3.57752 79.9775 3.83036 80.4536 4.17134 80.8632C4.51231 81.2727 4.93402 81.6068 5.40986 81.8443L45.4428 107.534L52.4543 112.309L56.2992 108.216L50.1925 104.124V104.124Z" fill="#EAAC9D"/>
<path d="M97.4631 111.854C93.77 115.53 89.5828 118.667 85.0235 121.175L81.1785 122.994C79.0945 124.134 76.8958 125.049 74.6194 125.722C71.1513 126.752 67.5907 127.438 63.9892 127.768H63.763L51.0972 115.037C50.8747 114.787 50.7516 114.463 50.7516 114.127C50.7516 113.792 50.8747 113.468 51.0972 113.218L52.4543 112.081L56.2992 108.444L73.0362 91.3928H73.2624L74.1671 90.4835C74.4159 90.2598 74.738 90.1361 75.0718 90.1361C75.4056 90.1361 75.7277 90.2598 75.9765 90.4835L97.4631 111.854Z" fill="#54A0FF"/>
<path d="M81.6308 95.9397H81.4047L64.2154 113.218C63.9928 113.468 63.8698 113.792 63.8698 114.127C63.8698 114.463 63.9928 114.787 64.2154 115.037L74.6194 125.495C71.1513 126.525 67.5907 127.21 63.9892 127.541H63.763L51.0972 114.809C50.8747 114.559 50.7516 114.235 50.7516 113.9C50.7516 113.564 50.8747 113.241 51.0972 112.991L52.4543 111.854L56.2992 108.216L73.0362 91.1654H73.2624L74.1671 90.256C74.4159 90.0324 74.738 89.9087 75.0718 89.9087C75.4056 89.9087 75.7277 90.0324 75.9765 90.256L81.6308 95.9397Z" fill="#54A0FF"/>
</g>
<g clip-path="url(#clip2_39_18)">
<path d="M199.531 139.198C199.586 150.464 196.31 161.495 190.115 170.902C183.92 180.309 175.083 187.671 164.717 192.063C154.351 196.454 142.919 197.678 131.86 195.581C120.8 193.484 110.607 188.159 102.565 180.277C99.7077 177.537 97.1386 174.512 94.8975 171.249C93.8373 169.644 92.8589 167.987 91.9659 166.283C89.9269 162.573 88.3372 158.633 87.2303 154.546C86.0807 150.654 85.3994 146.638 85.2008 142.584V142.584V139.198C85.1558 135.716 85.4579 132.238 86.1028 128.816C86.9443 124.309 88.3064 119.916 90.1619 115.725C91.5193 112.821 93.1027 110.029 94.8975 107.373L96.927 104.439C100.105 100.203 103.907 96.4741 108.202 93.3796C120.229 84.4095 135.302 80.5407 150.158 82.6105C165.014 84.6804 178.457 92.5224 187.58 104.439C195.328 114.366 199.535 126.601 199.531 139.198V139.198Z" fill="#356287"/>
<path d="M187.58 76.4517V174.409C182.234 181.354 175.369 186.98 167.511 190.854C159.653 194.728 151.013 196.746 142.253 196.754C134.893 196.804 127.596 195.394 120.784 192.604C113.972 189.815 107.779 185.702 102.565 180.503C99.7077 177.763 97.1386 174.738 94.8975 171.474V76.4517C94.8975 75.7333 95.1826 75.0444 95.69 74.5365C96.1975 74.0285 96.8858 73.7432 97.6035 73.7432H184.648C185.388 73.741 186.101 74.0189 186.645 74.5213C187.189 75.0237 187.523 75.7132 187.58 76.4517V76.4517Z" fill="#E9EBED"/>
<path d="M103.241 90.6713H89.2599C87.7647 90.6713 86.3307 91.2658 85.2735 92.324C84.2162 93.3822 83.6223 94.8174 83.6223 96.3139V99.0224C83.6223 99.7634 83.7681 100.497 84.0514 101.182C84.3347 101.866 84.75 102.488 85.2735 103.012C85.797 103.536 86.4185 103.952 87.1024 104.236C87.7864 104.519 88.5195 104.665 89.2599 104.665H103.241C103.981 104.665 104.715 104.519 105.399 104.236C106.082 103.952 106.704 103.536 107.227 103.012C107.751 102.488 108.166 101.866 108.45 101.182C108.733 100.497 108.879 99.7634 108.879 99.0224V96.3139C108.879 94.8174 108.285 93.3822 107.227 92.324C106.17 91.2658 104.736 90.6713 103.241 90.6713V90.6713Z" fill="#ABB4BA"/>
<path d="M103.241 115.95H89.2599C87.7647 115.95 86.3307 116.545 85.2735 117.603C84.2162 118.661 83.6223 120.097 83.6223 121.593V124.302C83.6223 125.043 83.7681 125.776 84.0514 126.461C84.3347 127.146 84.75 127.768 85.2735 128.292C85.797 128.816 86.4185 129.231 87.1024 129.515C87.7864 129.798 88.5195 129.944 89.2599 129.944H103.241C103.981 129.944 104.715 129.798 105.399 129.515C106.082 129.231 106.704 128.816 107.227 128.292C107.751 127.768 108.166 127.146 108.45 126.461C108.733 125.776 108.879 125.043 108.879 124.302V121.593C108.879 120.097 108.285 118.661 107.227 117.603C106.17 116.545 104.736 115.95 103.241 115.95V115.95Z" fill="#ABB4BA"/>
<path d="M108.879 146.872V149.581C108.879 151.077 108.285 152.513 107.227 153.571C106.17 154.629 104.736 155.223 103.241 155.223H89.2598L87.2303 154.772C86.0807 150.88 85.3994 146.864 85.2008 142.81V142.81C86.3337 141.834 87.7662 141.277 89.2598 141.23H103.241C104.736 141.23 106.17 141.824 107.227 142.882C108.285 143.941 108.879 145.376 108.879 146.872V146.872Z" fill="#ABB4BA"/>
<path d="M108.879 172.151V174.86C108.879 176.356 108.285 177.792 107.227 178.85C106.17 179.908 104.736 180.503 103.241 180.503H102.565C99.7077 177.763 97.1386 174.738 94.8975 171.474C93.8373 169.87 92.8589 168.212 91.9659 166.509H103.241C104.736 166.509 106.17 167.103 107.227 168.161C108.285 169.22 108.879 170.655 108.879 172.151Z" fill="#ABB4BA"/>
<path d="M136.616 162.22C136.366 161.677 135.977 161.21 135.488 160.866C133.271 159.543 131.226 157.951 129.4 156.126C128.868 155.571 128.139 155.246 127.37 155.223C126.675 155.28 126.029 155.604 125.566 156.126C125.384 156.204 125.226 156.329 125.107 156.487C124.988 156.645 124.913 156.832 124.889 157.029C124.675 157.364 124.595 157.766 124.664 158.158C124.65 158.546 124.727 158.933 124.889 159.286C124.913 159.483 124.988 159.67 125.107 159.828C125.226 159.987 125.384 160.111 125.566 160.189C127.664 162.434 130.098 164.338 132.782 165.832H134.135C134.432 165.841 134.727 165.785 134.999 165.669C135.272 165.552 135.516 165.376 135.714 165.155C136.202 164.811 136.591 164.343 136.841 163.8C136.865 163.264 136.789 162.728 136.616 162.22ZM125.34 150.032C124.252 147.743 123.493 145.312 123.085 142.81C123.06 142.439 122.944 142.08 122.748 141.765C122.551 141.45 122.28 141.189 121.958 141.004C121.381 140.549 120.663 140.309 119.928 140.327C119.558 140.352 119.2 140.468 118.885 140.665C118.57 140.862 118.309 141.133 118.124 141.455C117.67 142.033 117.43 142.751 117.448 143.487C117.9 146.613 118.812 149.655 120.154 152.515C120.408 152.996 120.801 153.389 121.281 153.644L122.634 154.095H123.987C124.62 153.653 125.094 153.02 125.34 152.289C125.618 151.563 125.618 150.759 125.34 150.032V150.032ZM126.017 126.333C126.017 125.882 125.791 125.656 125.566 125.204L124.889 124.527L123.762 124.076H122.634C122.459 124.076 122.287 124.117 122.13 124.195C121.974 124.273 121.837 124.387 121.732 124.527C121.332 124.708 121.011 125.029 120.83 125.43C119.422 128.123 118.433 131.015 117.899 134.007C117.771 134.167 117.701 134.366 117.701 134.571C117.701 134.776 117.771 134.975 117.899 135.136C117.914 135.553 118.074 135.951 118.35 136.264L119.026 136.941L120.154 137.393H120.605C121.265 137.377 121.901 137.138 122.409 136.715C122.86 136.49 123.085 135.813 123.311 135.136C123.799 132.696 124.634 130.34 125.791 128.139C126.025 127.887 126.181 127.574 126.242 127.236C126.26 126.919 126.181 126.604 126.017 126.333V126.333ZM168.412 119.562C166.373 117.253 163.927 115.34 161.196 113.919L160.294 113.468H159.166L158.039 113.919L157.362 114.596C157.18 114.943 157.101 115.335 157.137 115.725C157.038 115.896 156.985 116.091 156.985 116.289C156.985 116.487 157.038 116.682 157.137 116.853C157.198 117.191 157.355 117.504 157.588 117.756L158.49 118.659C160.64 119.89 162.612 121.409 164.353 123.173L165.255 123.85H167.51C167.735 123.624 168.186 123.624 168.412 123.173C168.934 122.71 169.257 122.063 169.314 121.367C169.314 121.017 169.232 120.671 169.076 120.358C168.919 120.045 168.692 119.772 168.412 119.562V119.562ZM137.969 114.37L137.292 113.468L136.39 113.016H134.135C131.362 114.401 128.784 116.147 126.468 118.207C126.029 118.794 125.791 119.506 125.791 120.239C125.791 120.971 126.029 121.684 126.468 122.27L127.37 122.947H128.498C129.135 123.037 129.781 122.875 130.302 122.496C132.166 120.74 134.297 119.293 136.616 118.207L137.518 117.53C137.751 117.278 137.907 116.965 137.969 116.628C138.118 116.27 138.194 115.886 138.194 115.499C138.194 115.112 138.118 114.728 137.969 114.37V114.37ZM154.43 111.662C153.875 111.141 153.16 110.823 152.401 110.759C149.358 110.155 146.243 110.003 143.155 110.308L142.253 110.759L141.351 111.436C141.075 111.749 140.916 112.148 140.9 112.565C140.686 112.899 140.605 113.302 140.675 113.693C140.736 114.031 140.893 114.344 141.126 114.596L141.802 115.499L142.704 115.95C142.864 116.079 143.063 116.148 143.268 116.148C143.473 116.148 143.672 116.079 143.832 115.95C146.321 115.762 148.825 115.914 151.273 116.402H151.95C152.679 116.387 153.387 116.151 153.979 115.725C154.274 115.529 154.512 115.259 154.67 114.942C154.829 114.625 154.901 114.273 154.881 113.919C154.977 113.533 154.985 113.13 154.907 112.74C154.83 112.35 154.667 111.982 154.43 111.662V111.662Z" fill="#72767B"/>
<path d="M189.158 91.7998L144.508 150.258L140.449 150.935L139.998 147.098L136.39 147.549L182.619 86.8342L189.158 91.7998Z" fill="#4A9ADB"/>
<path d="M195.698 96.7652L149.469 157.48L148.793 153.869L144.959 154.321L144.508 150.258L189.158 91.7997L195.698 96.7652Z" fill="#3587CB"/>
<path d="M136.165 161.318L133.459 164.703L133.008 164.026V163.349L133.91 159.512L136.165 161.318Z" fill="#356287"/>
<path d="M138.42 163.123L135.037 164.703C134.586 165.155 133.91 164.929 133.459 164.703L136.165 161.318L138.42 163.123Z" fill="#2C5170"/>
<path d="M144.508 150.258L136.165 161.318L133.91 159.512L136.165 147.549H136.39L139.998 147.098L140.449 150.935L144.508 150.258Z" fill="#FFCCAA"/>
<path d="M149.469 157.481H149.244L138.42 162.898L136.165 161.092L144.508 150.258L144.959 154.321L148.793 153.869L149.469 157.481Z" fill="#FFB380"/>
<path d="M197.502 80.7401L189.158 91.7997L182.618 86.8342L188.256 79.6116C188.926 78.6175 189.864 77.8347 190.962 77.3545C191.962 77.1508 193.001 77.3109 193.894 77.8059L197.502 80.7401Z" fill="#F2F2F2"/>
<path d="M201.335 89.5427L195.698 96.7653L189.158 91.7998L197.502 80.7401L201.335 83.6743C201.71 83.9659 202.008 84.3441 202.205 84.7766C202.401 85.2091 202.49 85.6828 202.463 86.1571C202.396 87.3662 202.007 88.5354 201.335 89.5427V89.5427Z" fill="#E6E6E6"/>
</g>
<defs>
<clipPath id="clip0_39_18">
<rect width="129.265" height="119.883" fill="white" transform="translate(169.454 8.46228)"/>
</clipPath>
<clipPath id="clip1_39_18">
<rect width="114.671" height="128.223" fill="white" transform="translate(0.207825)"/>
</clipPath>
<clipPath id="clip2_39_18">
<rect width="118.841" height="123.01" fill="white" transform="translate(83.6223 73.7432)"/>
</clipPath>
</defs>
</svg>
