<svg width="35" height="35" viewBox="0 0 35 35" fill="none" xmlns="http://www.w3.org/2000/svg">
<g clip-path="url(#clip0_37_1350)">
<path d="M29.8382 10.2264C29.3771 9.7951 28.6139 9.83017 28.1674 10.2766L26.3536 12.0905C26.1142 12.3299 25.7104 12.1087 25.7832 11.7781L27.2536 5.10996C27.4138 4.51202 27.0449 3.89692 26.4339 3.76177C25.8584 3.63449 25.2892 4.00882 25.1366 4.57819L23.8882 9.23743C23.8152 9.50991 23.5682 9.69933 23.2862 9.69933C22.927 9.69933 22.6422 9.3965 22.6641 9.03802L23.0992 1.93979C23.0992 1.32599 22.5924 0.830591 21.9744 0.849116C21.3772 0.867027 20.9168 1.38806 20.9168 1.98559L20.4757 9.14056C20.4563 9.45461 20.1959 9.6994 19.8813 9.6994C19.5645 9.6994 19.3032 9.45139 19.2866 9.13509L18.8651 1.09118C18.8651 0.477378 18.3583 -0.0180222 17.7403 0.000503176C17.1431 0.0184133 16.6827 0.539517 16.6827 1.13698L17.0864 8.79952C17.1122 9.2887 16.7225 9.69947 16.2327 9.69947C15.8457 9.69947 15.507 9.43957 15.4068 9.06578L14.3735 5.20942C14.2209 4.63999 13.6518 4.26565 13.0762 4.39293C12.4652 4.52808 12.0964 5.14311 12.2565 5.74105L13.6874 12.105L16.9695 17.2441C17.0372 17.3501 17.1466 17.4109 17.2698 17.4109C17.4483 17.4109 17.633 17.2759 17.633 17.0503V14.324C17.633 13.721 18.1275 13.195 18.7129 13.1755C18.7257 13.1751 18.7385 13.1749 18.7512 13.1749C19.3678 13.1749 19.8693 13.6764 19.8693 14.293L19.742 18.3706C19.699 19.749 19.9259 21.129 20.3956 22.4218H23.4913C23.5379 19.5051 24.7628 16.7282 26.8924 14.7275L29.8672 11.9327C30.3402 11.4598 30.3305 10.6871 29.8382 10.2264Z" fill="#EAAC9D"/>
<path d="M21.7125 24.9534L21.7592 25.02L22.0782 24.701C22.1298 24.6494 22.1985 24.621 22.2716 24.621C22.3447 24.621 22.4133 24.6494 22.4649 24.701L24.4043 26.6405V22.6953C24.4043 22.5066 24.2513 22.3535 24.0625 22.3535H20.3715C20.699 23.2738 21.1488 24.1512 21.7125 24.9534Z" fill="#3587CB"/>
<path d="M15.746 31.4199C15.6944 31.3683 15.6659 31.2996 15.6659 31.2266C15.6659 31.1536 15.6659 31.2266 15.6659 31.2266C15.6659 31.1719 15.6819 31.1196 15.7117 31.075L16.1272 30.6521L14.7656 29.6772V34.7766C15.6555 34.9227 16.5687 35 17.5 35C18.0863 35 18.6654 34.9689 19.2362 34.9101L15.746 31.4199Z" fill="#3587CB"/>
<path d="M24.0007 11.6348C22.1928 11.6348 20.6249 12.6779 19.8644 14.1934C19.8674 14.2263 19.8695 14.2594 19.8695 14.2931L19.7837 17.0409C19.9374 17.1479 20.124 17.211 20.3255 17.211C20.8504 17.211 21.276 16.7854 21.276 16.2605C21.276 14.7581 22.4983 13.5358 24.0007 13.5358C24.5256 13.5358 24.9512 13.1102 24.9512 12.5853C24.9512 12.0603 24.5256 11.6348 24.0007 11.6348Z" fill="#EAAC9D"/>
<path d="M21.8081 24.9711C20.4485 23.0622 19.7364 20.7477 19.8105 18.3728L19.9378 14.2931C19.9378 13.6243 19.3845 13.0848 18.7107 13.1073C18.0796 13.1283 17.5648 13.6928 17.5648 14.3241V17.0504C17.5648 17.3419 17.1841 17.4531 17.0273 17.2074L13.2652 11.3169C12.9556 10.7808 12.2599 10.6067 11.7323 10.9432C11.2354 11.2602 11.0976 11.9274 11.3923 12.4379L13.8148 16.6336C13.9495 16.8671 13.9108 17.1619 13.7202 17.3525L13.6843 17.3884C13.4416 17.6311 13.0445 17.6189 12.8171 17.3619L8.08599 12.013C7.65198 11.5789 6.94329 11.5869 6.51947 12.037C6.10986 12.472 6.15272 13.166 6.57518 13.5885L11.3226 18.9597C11.531 19.1955 11.52 19.5527 11.2975 19.7752C11.0735 19.9992 10.7134 20.0086 10.478 19.7966L4.49193 14.4066C4.05791 13.9726 3.34923 13.9806 2.9254 14.4307C2.51579 14.8657 2.55866 15.5596 2.98112 15.9822L8.68482 21.1149C9.04897 21.4426 9.06387 22.0086 8.71749 22.355C8.44385 22.6286 8.02057 22.6843 7.68547 22.4908L4.22799 20.4946C3.71748 20.1998 3.0503 20.3376 2.73331 20.8346C2.39685 21.3621 2.57096 22.0579 3.10704 22.3674L14.1499 29.356C14.813 29.7756 15.4562 30.2245 16.0788 30.7003L21.8081 24.9711Z" fill="#FFCBBE"/>
<path d="M15.4514 28.4288L4.4086 21.4402C4.01792 21.2147 3.82071 20.784 3.87205 20.3628C3.43967 20.2792 2.9803 20.4475 2.73331 20.8347C2.39685 21.3622 2.57096 22.058 3.10704 22.3675L14.1499 29.3561C14.7935 29.7634 15.4186 30.1982 16.0241 30.6584L17.111 29.5715C16.5724 29.1705 16.0196 28.7884 15.4514 28.4288Z" fill="#EAAC9D"/>
<path d="M28.6278 30.7672L22.5132 24.6526C22.3797 24.5191 22.1634 24.5191 22.0299 24.6526L15.6977 30.9848C15.5642 31.1183 15.5642 31.3347 15.6977 31.4682L19.1486 34.9191C22.771 34.5651 26.0546 33.0569 28.6278 30.7672Z" fill="#54A0FF"/>
<path d="M19.2672 31.4682C19.1337 31.3347 19.1337 31.1183 19.2672 30.9848L24.0564 26.1956L22.5134 24.6526C22.3798 24.5191 22.1635 24.5191 22.03 24.6526L15.6978 30.9848C15.5643 31.1183 15.5643 31.3347 15.6978 31.4682L19.1487 34.9191C20.1778 34.8185 21.1795 34.6246 22.1453 34.3462L19.2672 31.4682Z" fill="#54A0FF"/>
</g>
<defs>
<clipPath id="clip0_37_1350">
<rect width="35" height="35" fill="white"/>
</clipPath>
</defs>
</svg>
