<svg width="34" height="34" viewBox="0 0 34 34" fill="none" xmlns="http://www.w3.org/2000/svg">
<path d="M9.0307 17.994C10.8021 19.8759 13.7007 19.8759 15.4721 17.9937L16.1546 17.2687L15.1927 16.8962C14.9629 16.8072 14.8114 16.586 14.8114 16.3395V14.1977C14.1175 14.6742 13.2786 14.9538 12.3751 14.9538C11.3754 14.9538 10.5025 14.6654 9.80138 14.1868V16.3183C9.80138 16.5774 9.64211 16.8101 9.40035 16.904L8.37805 17.3003L9.0307 17.994Z" fill="#FFBEAB"/>
<path d="M11.8558 14.9266C11.0714 14.8451 10.3783 14.5805 9.80139 14.1868V16.3183C9.80139 16.5774 9.64212 16.8101 9.4001 16.904L8.37781 17.3003L9.03072 17.994C9.81618 18.8285 10.8234 19.2923 11.8556 19.3864V14.9266H11.8558Z" fill="#F7AF9F"/>
<path d="M22.8946 27.047C22.6214 26.9873 22.3377 26.9962 22.0669 27.0654L18.6708 27.9347C18.4762 27.9845 18.3219 27.7692 18.4319 27.6011L18.8532 26.9565C19.3203 26.2416 19.2339 25.2955 18.6373 24.6844C16.7287 22.7301 15.904 19.982 16.3533 17.3455L16.0586 17.2313L15.3655 17.968C13.6537 19.7869 10.8528 19.7869 9.14124 17.968L8.47666 17.2619L3.18153 19.3148C3.18153 19.3148 0.730469 20.3223 0.730469 23.1163L0.730469 32.8827C0.730469 33.4998 1.23059 33.9999 1.84744 33.9999H22.7722C23.389 33.9999 23.8891 33.4998 23.8891 32.8827V27.2019C23.5563 27.1699 23.2243 27.1191 22.8946 27.047Z" fill="#54A0FF"/>
<path d="M2.7831 32.883L2.7831 22.0165C2.7831 20.5177 3.48815 19.5333 4.14209 18.9424L3.18154 19.3149C3.18154 19.3149 0.730469 20.3224 0.730469 23.1166L0.730469 32.883C0.730469 33.4999 1.23059 34 1.84744 34H3.89981C3.28322 34 2.7831 33.4999 2.7831 32.883Z" fill="#338DEF"/>
<path d="M5.41522 34L5.41522 24.0769C5.41522 23.7937 5.18539 23.5638 4.90213 23.5638C4.61861 23.5638 4.38904 23.7937 4.38904 24.0769L4.38904 34H5.41522Z" fill="#338DEF"/>
<path d="M20.2308 27.5352L19.2046 27.7979V33.9999H20.2308V27.5352Z" fill="#338DEF"/>
<path d="M29.4673 11.689C25.5579 9.06107 20.1437 10.1539 17.5624 14.0937C15.345 17.4778 15.8314 21.9094 18.5886 24.7324C19.1567 25.314 19.2438 26.2336 18.7958 26.9192L18.3746 27.5638C18.2309 27.7837 18.4332 28.0665 18.6877 28.0011L22.0837 27.1319C22.348 27.0642 22.6233 27.0582 22.8801 27.114C24.5527 27.4792 26.2808 27.3352 27.8771 26.6974C34.1953 24.1737 35.1779 15.5282 29.4673 11.689Z" fill="#E9EBED"/>
<path d="M20.8482 26.9189C21.2962 26.2335 21.209 25.314 20.6409 24.7321C17.8838 21.9091 17.3974 17.4778 19.6148 14.0936C21.043 11.9142 23.3379 10.6063 25.7656 10.3173C22.6373 9.94246 19.3901 11.3043 17.5624 14.0936C15.345 17.4778 15.8314 21.9091 18.5886 24.7321C19.1564 25.314 19.2438 26.2335 18.7958 26.9189L18.3746 27.5635C18.2309 27.7837 18.4332 28.0664 18.6877 28.0008L20.4332 27.5541L20.8482 26.9189Z" fill="#ABB4BA"/>
<path d="M28.4424 16.1458H20.9782C20.6947 16.1458 20.4651 16.3753 20.4651 16.6588C20.4651 16.9421 20.6947 17.1719 20.9782 17.1719H28.4427C28.7259 17.1719 28.9558 16.9421 28.9558 16.6588C28.9558 16.3753 28.7259 16.1458 28.4424 16.1458Z" fill="#ABB4BA"/>
<path d="M28.4424 18.4474H20.9782C20.6947 18.4474 20.4651 18.6772 20.4651 18.9605C20.4651 19.244 20.6947 19.4738 20.9782 19.4738H28.4427C28.7259 19.4738 28.9558 19.244 28.9558 18.9605C28.9558 18.6772 28.7259 18.4474 28.4424 18.4474Z" fill="#ABB4BA"/>
<path d="M28.4424 20.7493H20.9782C20.6947 20.7493 20.4651 20.9791 20.4651 21.2624C20.4651 21.5459 20.6947 21.7754 20.9782 21.7754H28.4427C28.7259 21.7754 28.9558 21.5459 28.9558 21.2624C28.9558 20.9791 28.7259 20.7493 28.4424 20.7493Z" fill="#ABB4BA"/>
<path d="M12.2271 0C8.9135 0 6.22742 2.68608 6.22742 5.99991L6.22742 8.21518C6.62819 7.84346 7.19887 7.77083 7.75554 7.84528V7.54645C7.75554 7.30858 7.95865 7.12104 8.19392 7.13868C10.5135 7.30547 12.8743 6.56826 14.6592 5.40225C14.8257 5.29331 15.0465 5.32028 15.1819 5.46607C16.7079 7.10625 16.6986 7.0427 16.6986 7.25696V7.84398C17.3092 7.75241 17.8506 7.81182 18.2267 8.16149V5.99991C18.2267 2.68608 15.5409 0 12.2271 0Z" fill="#576574"/>
<path d="M8.27979 5.99991C8.27979 3.03601 10.4287 0.57457 13.2533 0.087677C12.9197 0.0303497 12.577 0 12.2271 0C8.9135 0 6.22742 2.68608 6.22742 5.99991L6.22742 8.21518C6.62819 7.84346 7.19861 7.77083 7.75554 7.84528V7.54645C7.75554 7.30858 7.95865 7.12104 8.19392 7.13868C8.22246 7.14075 8.25099 7.14205 8.27979 7.14386V5.99991Z" fill="#3E4B5A"/>
<path d="M16.6568 7.68008V11.0336C16.6568 11.0699 16.6547 11.1057 16.6539 11.142C17.8407 11.3215 18.7701 10.4642 18.7701 9.41105C18.7701 8.35607 17.8399 7.50265 16.6568 7.68008Z" fill="#FFBEAB"/>
<path d="M7.81361 11.0457V7.66808C6.77264 7.52904 5.6842 8.32799 5.6842 9.41098C5.6842 10.4706 6.61856 11.3362 7.81647 11.1549C7.81543 11.1184 7.81361 11.082 7.81361 11.0457Z" fill="#FFBEAB"/>
<path d="M18.2259 8.14517C17.8417 7.78227 17.2848 7.5859 16.6568 7.68006V11.0333C16.6568 11.0696 16.6547 11.1057 16.6539 11.1417C17.284 11.2372 17.8415 11.0403 18.2259 10.6769V8.14517Z" fill="#F7AF9F"/>
<path d="M7.81387 10.6973C7.46446 10.3731 7.25357 9.91396 7.25357 9.41098C7.25357 8.92253 7.47536 8.49245 7.81387 8.17961V7.66808C6.7729 7.52904 5.6842 8.32799 5.6842 9.41098C5.6842 10.4706 6.61882 11.3362 7.81647 11.1549C7.81569 11.1184 7.81387 11.082 7.81387 11.0457V10.6973Z" fill="#F7AF9F"/>
<path d="M15.1818 5.33632C15.0464 5.19079 14.8259 5.16382 14.6592 5.27251C12.8742 6.43877 10.5134 7.17572 8.19388 7.00918C7.9586 6.99129 7.75549 7.17909 7.75549 7.4167V11.0011C7.75549 13.3048 9.56065 15.4088 12.2908 15.4088C14.7214 15.4088 16.6988 13.4314 16.6988 11.0011V7.12747C16.6988 6.91321 16.7079 6.97676 15.1818 5.33632Z" fill="#FFCDBF"/>
<path d="M9.80812 11.0012V6.98462C9.27272 7.03728 8.73239 7.04791 8.19388 7.00926C7.9586 6.99136 7.75549 7.17917 7.75549 7.41678V11.0012C7.75549 13.3049 9.56065 15.4089 12.2908 15.4089C12.6317 15.4089 12.9629 15.3689 13.2815 15.2953C11.1554 14.8304 9.80812 12.991 9.80812 11.0012Z" fill="#FFBEAB"/>
</svg>
