<svg width="17" height="17" viewBox="0 0 17 17" fill="none" xmlns="http://www.w3.org/2000/svg">
<g clip-path="url(#clip0_33_1147)">
<path d="M9.42521 0H6.9909C6.66902 0 6.40747 0.261545 6.40747 0.583431C6.40747 0.905317 6.66902 1.16686 6.9909 1.16686H9.42521C9.7471 1.16686 10.0086 0.905317 10.0086 0.583431C10.0086 0.261545 9.7471 0 9.42521 0Z" fill="#FEFFFE"/>
<path d="M15.9234 3.8426L14.3341 2.25326C14.1128 2.03195 13.7506 2.03195 13.5092 2.25326C13.2879 2.47456 13.2879 2.83669 13.5092 3.0781L15.0785 4.64733C15.1992 4.76806 15.34 4.8083 15.4808 4.8083C15.6217 4.8083 15.7826 4.74795 15.8832 4.64733C16.1447 4.42603 16.1447 4.0639 15.9234 3.8426Z" fill="#FEFFFE"/>
<path d="M8.19815 2.43433C4.17447 2.43433 0.915283 5.69351 0.915283 9.71719C0.915283 13.7409 4.17447 17.0001 8.19815 17.0001C12.2218 17.0001 15.481 13.7409 15.481 9.71719C15.481 5.69351 12.2218 2.43433 8.19815 2.43433ZM11.2159 10.5018H8.19815C7.87626 10.5018 7.61472 10.2402 7.61472 9.91836V6.13612C7.61472 5.81423 7.87626 5.55269 8.19815 5.55269C8.52004 5.55269 8.78158 5.81423 8.78158 6.13612V9.35506H11.2159C11.5378 9.35506 11.7993 9.61661 11.7993 9.9385C11.7993 10.2403 11.5378 10.5018 11.2159 10.5018Z" fill="#FEFFFE"/>
</g>
<defs>
<clipPath id="clip0_33_1147">
<rect width="17" height="17" fill="white"/>
</clipPath>
</defs>
</svg>
