<svg width="14" height="15" viewBox="0 0 14 15" fill="none" xmlns="http://www.w3.org/2000/svg">
<path fill-rule="evenodd" clip-rule="evenodd" d="M0.991001 0.8901C1.60399 0.33284 2.55266 0.378015 3.10992 0.991001L7.00001 5.2701L10.8901 0.991001C11.4474 0.378015 12.396 0.33284 13.009 0.8901C13.622 1.44736 13.6672 2.39603 13.1099 3.00902L9.0272 7.50001L13.1099 11.991C13.6672 12.604 13.622 13.5527 13.009 14.1099C12.396 14.6672 11.4474 14.622 10.8901 14.009L7.00001 9.72992L3.10992 14.009C2.55266 14.622 1.60399 14.6672 0.991001 14.1099C0.378015 13.5527 0.33284 12.604 0.8901 11.991L4.97282 7.50001L0.8901 3.00902C0.33284 2.39603 0.378015 1.44736 0.991001 0.8901Z" fill="#1EA5FC"/>
</svg>
