<svg id="Layer_1" data-name="Layer 1" xmlns="http://www.w3.org/2000/svg" viewBox="0 0 376 112.9">
  <defs>
    <style>
      .cls-1 {
        fill: #e6e6e6;
      }
    </style>
  </defs>
  <g>
    <path class="cls-1" d="M91.7,9.2H75.6V6.7H107V9.2H96.5l-24,53.2V115h9.7v3H31.8v-3h9.7V65.4L14.4,9.2H7V6.7H57.8V9.2H47.5L69.1,59Z" transform="translate(-7 -6.7)"/>
    <path class="cls-1" d="M151.6,61.7V115H162v3H110.3v-3h10.3V9.7H110.3v-3h48c33.3,0,49.2,3.5,49.2,26.7,0,19.4-10.2,25.1-27.1,26.6v.4c17.2,2.3,23.1,8.9,23.1,27.4v8.4c0,10.4.5,14,4.9,14s5.3-1.3,7.3-13.7l2.7.4c-2.4,18.1-6.8,22.7-21.6,22.7-20,0-25.9-6.7-25.9-29.1V78.9c0-11.3-2.2-17.2-10.8-17.2Zm0-3h5.1c11.8,0,17.8-6.5,17.8-23.7V30.4c0-17.8-6.5-20.7-17.6-20.7h-5.3Z" transform="translate(-7 -6.7)"/>
    <path class="cls-1" d="M307.8,6.7l1.6,31.5h-2.9c-8.7-20.8-16.2-28-35.4-28h-5.6V59.3h5.4c10.3,0,17-8.7,19.7-20.8H293V85.6h-2.7c-3.8-15.9-9.9-22.1-21-22.1h-3.8v51h6c20.2,0,34.2-13.8,39-31.2h3.2L312.4,118H225.1v-3.5h9.4V10.2h-9.4V6.7Z" transform="translate(-7 -6.7)"/>
    <path class="cls-1" d="M355.1,65c16.3,0,27.9,8.2,27.9,26.7,0,16.6-9.4,27.9-27,27.9-21,0-27.9-14.4-27.9-27C328.1,77.3,337.5,65,355.1,65Z" transform="translate(-7 -6.7)"/>
  </g>
</svg>
